<svg version="1.1" id="Layer_1" xmlns="http://www.w3.org/2000/svg" xmlns:xlink="http://www.w3.org/1999/xlink" x="0px" y="0px"
	 width="100%" viewBox="0 0 1024 1024" enable-background="new 0 0 1024 1024" xml:space="preserve">
<path fill="#000000" opacity="1.000000" stroke="none" 
	d="
M235.948853,565.396118 
	C232.266922,550.397400 232.142471,535.787231 236.691879,521.347595 
	C241.642044,505.635895 250.315323,492.666992 266.800720,487.710632 
	C273.010986,485.843506 275.001923,482.749786 276.274689,477.197479 
	C278.413971,467.865112 285.110779,460.913086 289.967468,452.998199 
	C293.030151,448.006897 298.409454,443.595764 297.001587,437.091766 
	C294.833801,427.077179 294.973511,416.990448 294.469208,406.894775 
	C293.905426,395.607666 293.984955,384.580353 297.014343,373.395874 
	C298.739685,367.025848 299.409271,360.219604 301.746887,353.933289 
	C305.149048,344.784302 309.579865,336.171356 314.577332,327.712738 
	C319.012390,320.206055 324.593750,313.869995 330.796234,308.180634 
	C335.983643,303.422394 342.058838,299.535736 348.151154,295.765686 
	C365.206848,285.211334 384.013245,281.659454 403.612305,280.837006 
	C405.600739,280.753571 406.988037,280.306335 407.756378,278.106445 
	C415.926697,254.712753 433.364624,239.970398 454.138397,228.178925 
	C467.136688,220.800949 480.995026,215.602081 495.259766,211.649063 
	C512.011597,207.006836 529.294922,205.568558 546.654785,205.987366 
	C570.698669,206.567429 594.327454,209.933121 617.203491,217.673126 
	C635.315002,223.801041 651.661621,232.961517 666.762268,244.801483 
	C679.277161,254.614059 689.374939,266.230011 697.623169,279.645111 
	C698.393921,280.898621 699.033386,282.268250 699.509583,283.660645 
	C700.957458,287.893890 703.080994,290.178223 708.261108,290.845612 
	C718.069824,292.109344 726.888977,296.842102 735.223877,302.082458 
	C756.396057,315.393921 770.205688,335.015869 780.950989,356.966644 
	C793.173645,381.935242 798.466553,408.631256 800.788086,436.245422 
	C802.250244,453.636230 802.191589,470.673676 798.386902,487.698700 
	C796.795471,494.819794 797.824585,507.673767 799.861328,518.397156 
	C803.103760,535.467834 801.403320,552.086731 794.856628,568.289673 
	C787.249207,587.117737 774.346252,601.454285 758.419189,613.605347 
	C749.780701,620.195862 740.949341,626.357849 731.189697,631.123047 
	C729.345764,632.023376 728.452576,633.074829 728.197571,635.199341 
	C727.239441,643.180664 724.062622,650.334778 720.395386,657.474182 
	C718.639160,660.893372 717.630371,664.944519 716.247803,668.708557 
	C709.949646,685.855652 701.949341,702.056274 691.542542,717.104675 
	C685.119934,726.391907 679.164673,736.065613 671.809021,744.609558 
	C660.899170,757.281982 649.030518,769.138367 635.701355,779.272278 
	C626.141296,786.540588 616.115967,793.016846 605.226562,798.575439 
	C591.709290,805.475586 577.951233,811.234375 563.416382,814.889709 
	C535.945129,821.798523 508.290619,822.352234 480.646484,815.183044 
	C452.364044,807.848267 427.154053,794.465637 404.620514,776.153748 
	C380.557098,756.598572 361.177094,732.995972 345.579102,706.143738 
	C338.467926,693.901733 331.671692,681.499573 326.500214,668.398193 
	C317.492432,645.578064 309.966339,622.278442 305.972992,597.902161 
	C304.935516,591.569153 304.602264,585.054932 302.715637,578.834167 
	C302.003174,576.484924 300.665771,574.852051 298.833313,573.246643 
	C287.704987,563.497253 280.578278,551.180420 275.861603,537.267761 
	C273.877960,531.416687 273.165100,525.344727 272.268860,519.344666 
	C271.630585,515.071533 272.421326,510.582886 271.121521,505.761475 
	C264.896271,507.720978 260.636322,511.514587 257.759613,516.958618 
	C249.039917,533.460205 248.358597,550.334229 254.397079,567.987854 
	C257.640320,577.469482 262.368073,586.187012 268.931702,593.158020 
	C275.141113,599.752686 281.601257,606.856506 290.422882,610.505676 
	C295.008850,612.402771 294.596893,615.952576 293.980804,619.674438 
	C293.302032,623.775208 290.011017,622.890381 287.297638,623.056458 
	C285.206879,623.184448 283.331360,622.391724 281.610657,621.393494 
	C260.434967,609.109253 244.540634,592.405273 237.403107,568.394165 
	C237.126419,567.463379 236.507996,566.634155 235.948853,565.396118 
M530.873474,356.453186 
	C531.738586,360.589844 531.531799,364.753571 530.992188,368.888184 
	C530.184692,375.075958 525.785278,378.108795 519.622498,376.679413 
	C507.926239,373.966583 497.032532,368.905640 486.567841,363.389313 
	C470.074860,354.695251 455.050995,343.564728 441.480408,330.754059 
	C432.194031,321.987640 423.556580,312.509491 416.883057,301.458649 
	C415.705902,299.509399 414.297913,296.695068 411.638458,299.462067 
	C407.815186,303.439972 403.205658,306.452301 399.228363,310.171722 
	C380.978699,327.238251 366.732727,347.445831 354.479828,369.055084 
	C346.443146,383.228607 340.069550,398.193329 334.289825,413.471436 
	C326.300476,434.590454 321.172943,456.301819 318.082977,478.598969 
	C315.273346,498.873383 314.464264,519.271484 314.707245,539.672180 
	C315.026886,566.505920 318.729126,592.904419 325.700897,618.922668 
	C332.615356,644.726990 342.174896,669.309875 355.297058,692.588623 
	C365.372192,710.461914 377.216797,726.923950 391.210297,741.950500 
	C404.400238,756.114075 418.854126,768.638123 435.681000,778.234741 
	C451.170258,787.068481 467.173492,794.558472 484.925690,798.048706 
	C503.196533,801.640808 521.495117,802.663696 539.940369,800.612854 
	C546.513977,799.882019 553.212952,798.908020 559.450989,796.831909 
	C570.441833,793.173828 581.334473,789.286194 591.733459,783.858459 
	C609.585022,774.540955 625.732300,763.105225 639.928040,748.903687 
	C647.513245,741.315186 654.797241,733.476929 661.257629,724.822998 
	C667.313110,716.711426 673.539062,708.640747 678.328430,699.816895 
	C683.754333,689.820374 689.825500,680.164124 694.065063,669.434875 
	C698.745056,657.591003 703.978760,646.027222 707.095642,633.590393 
	C709.462402,624.146729 711.008667,614.205872 722.860535,610.549927 
	C729.205505,608.592773 735.052551,604.679016 740.652039,600.797119 
	C746.513672,596.733582 752.944153,593.318115 758.194763,588.586060 
	C765.926941,581.617615 772.435669,573.530090 777.324524,564.093628 
	C783.471191,552.229004 785.724365,539.573425 784.052124,526.747803 
	C781.633118,508.194611 771.634094,493.769806 755.600098,484.013428 
	C750.621765,480.984131 745.047852,478.509521 738.498657,479.254364 
	C736.531250,493.129669 732.697754,506.357697 727.898621,519.120361 
	C721.998779,534.810242 714.604492,549.944031 704.426636,563.504395 
	C697.950317,572.133179 692.103638,581.502991 678.877930,581.340515 
	C675.678101,578.592407 671.724304,574.896484 672.411194,569.603821 
	C674.010803,557.278442 676.328674,545.070007 675.858948,532.533447 
	C675.543762,524.119507 676.685303,515.735046 676.191589,507.252869 
	C675.617676,497.393768 673.034851,487.916687 671.818604,478.193939 
	C671.232300,473.507477 671.072327,468.368073 666.871521,464.507080 
	C661.181824,459.277649 655.197815,454.731110 647.951721,451.912964 
	C632.066040,445.734711 615.490540,446.610565 599.143921,448.082123 
	C581.768860,449.646271 565.630859,455.953308 550.299255,464.317657 
	C545.365845,467.009125 540.349365,469.773743 534.751221,470.945038 
	C530.761108,471.779938 527.391846,468.931641 528.533936,465.638123 
	C529.552063,462.702026 530.759521,459.616119 533.900269,458.100098 
	C540.467651,454.930084 547.058472,451.808502 553.635498,448.658325 
	C559.923767,445.646362 566.647827,443.918549 573.203674,441.688202 
	C581.290527,438.936981 589.641235,437.475342 597.837708,436.386688 
	C609.375549,434.854218 621.210571,435.026611 632.899536,436.708374 
	C641.118896,437.890991 649.061584,439.848053 656.533630,443.555603 
	C658.581421,444.571686 660.520325,446.026611 663.017517,445.759644 
	C664.670471,434.152802 626.855835,371.464508 613.688110,363.903870 
	C612.760071,364.503448 612.362793,365.458038 612.378845,366.460449 
	C612.489258,373.320251 610.992798,380.007050 610.317871,386.779541 
	C609.708252,392.896973 604.981079,396.450745 598.969971,395.281219 
	C593.045288,394.128510 587.999756,391.576233 582.929504,388.272522 
	C566.746338,377.727753 551.921692,365.633759 538.535034,351.741089 
	C535.590393,348.685150 532.656189,345.619080 529.042542,341.855042 
	C528.511169,347.416840 530.066956,351.485443 530.873474,356.453186 
z"/>
<path fill="#000000" opacity="1.000000" stroke="none" 
	d="
M222.449036,778.109131 
	C183.288086,768.640442 167.726425,726.331543 170.922989,697.053162 
	C172.358017,683.909180 176.931122,672.013306 189.194504,665.011902 
	C196.149689,661.041077 204.091019,659.656616 211.872345,661.236023 
	C220.115005,662.909119 228.782486,664.888672 234.974350,671.000366 
	C240.669632,676.621887 246.212173,676.439453 252.307159,672.926392 
	C257.388428,669.997681 263.321716,669.478088 268.447693,666.486816 
	C270.991241,665.002625 275.280853,664.990845 276.767212,669.102417 
	C278.742859,674.567200 276.982452,678.869080 271.910706,680.105103 
	C263.790161,682.084412 256.485535,686.058960 248.693314,688.815918 
	C243.475906,690.661865 239.920105,690.366577 235.593491,685.874939 
	C226.959824,676.912109 215.913361,672.246765 203.146500,673.378174 
	C192.398422,674.330627 184.342850,683.868164 183.375244,697.538208 
	C181.749741,720.503174 189.332672,740.011780 207.152542,754.947327 
	C215.955994,762.325867 233.386581,766.987976 243.923523,759.585449 
	C249.869019,755.408447 253.795425,750.042297 254.745834,742.955444 
	C255.749283,735.473145 255.086029,727.985046 252.675110,720.747009 
	C250.155457,713.182617 253.306168,706.167114 260.958557,704.149048 
	C267.325134,702.470032 272.803619,699.128052 278.583984,696.345886 
	C283.821899,693.824707 285.865448,694.375916 288.329041,699.741516 
	C290.967255,705.487427 290.182465,707.527222 284.832458,709.788818 
	C280.393341,711.665222 276.053619,713.778137 271.680176,715.808472 
	C268.673706,717.204163 267.479645,719.470398 268.496735,722.724854 
	C271.931854,733.716431 270.162262,744.665344 266.637482,755.017212 
	C263.623352,763.869446 256.610809,769.951538 248.162445,774.407166 
	C240.054565,778.683228 231.545425,778.542236 222.449036,778.109131 
z"/>
<path fill="#000000" opacity="1.000000" stroke="none" 
	d="
M424.982758,519.974609 
	C433.301300,515.920105 444.579010,519.097900 448.467987,526.592163 
	C452.878448,535.091248 448.837952,547.099182 439.922546,551.988281 
	C427.811615,558.629639 411.723663,549.611267 409.923767,534.831299 
	C408.668396,524.522888 410.576599,515.145508 418.751678,507.497070 
	C428.744995,498.147522 446.820740,496.560760 457.979431,504.557556 
	C468.363678,511.999390 473.784485,521.839111 473.104584,534.752502 
	C472.993561,536.861267 473.077393,538.298950 475.485840,539.449402 
	C478.724731,540.996521 478.426941,544.321960 477.862396,547.394836 
	C475.758453,558.846313 469.290588,568.162415 463.294464,577.781494 
	C448.200317,601.995850 418.808838,606.454773 396.353363,599.765808 
	C366.739136,590.944519 348.452362,570.733276 339.422760,541.567871 
	C337.354401,534.886963 335.409515,528.198303 334.987885,521.192688 
	C334.752075,517.274963 335.563232,513.451660 340.340607,513.110962 
	C344.949158,512.782288 345.697845,516.363708 346.318237,520.087280 
	C349.875977,541.441223 357.206726,560.950073 374.635559,575.138489 
	C394.390747,591.220764 416.130402,593.062744 439.148010,583.329651 
	C446.997681,580.010376 452.908691,573.505859 457.397095,564.202698 
	C448.897614,571.192078 439.929077,575.363464 430.093964,576.617065 
	C416.695312,578.324768 405.224121,573.740356 396.138611,563.588867 
	C385.002716,551.146362 379.090057,536.798828 382.832092,520.112427 
	C386.480194,503.844849 396.076508,491.338043 410.373932,482.576416 
	C411.365662,481.968719 412.324127,481.304565 413.277863,480.637817 
	C414.060333,480.090881 414.812683,479.500885 416.127594,478.520416 
	C397.265411,476.219727 380.233337,480.006683 363.792480,487.466949 
	C361.236389,488.626801 359.803558,490.321594 359.374847,493.000244 
	C359.348511,493.164703 359.335846,493.331268 359.312531,493.496246 
	C358.838165,496.851410 357.345673,499.838684 354.090759,500.818085 
	C351.137390,501.706726 350.345642,498.203979 348.819458,496.645508 
	C346.458862,497.098145 345.055664,498.571381 343.407104,499.668823 
	C339.322906,502.387787 334.330902,501.606476 331.378723,497.865967 
	C329.213898,495.123016 330.992920,492.712097 332.442200,490.595306 
	C335.714630,485.815674 340.578094,482.572937 345.439362,479.891266 
	C352.128326,476.201447 357.199066,471.154663 362.291565,465.607788 
	C374.692932,452.099915 390.027557,444.951080 408.827332,444.500305 
	C421.896515,444.186951 434.386169,445.948212 446.973480,448.993805 
	C454.187134,450.739197 461.534698,452.064117 468.776672,453.791016 
	C469.907349,454.060669 471.148193,454.139679 472.137817,454.676208 
	C474.627625,456.026093 478.563812,456.635193 477.537201,460.649048 
	C476.459442,464.862762 472.495331,464.749725 469.285400,464.112030 
	C457.239868,461.718872 445.328186,458.607727 433.240021,456.484711 
	C417.924286,453.794830 402.558136,453.673187 387.540680,458.592865 
	C384.113892,459.715485 381.220062,461.929749 378.593384,464.788208 
	C381.960419,464.095184 385.384125,463.602509 388.683289,462.669525 
	C396.888916,460.348999 405.139984,460.685883 413.457001,461.740204 
	C426.341187,463.373474 439.240662,465.038910 451.272369,470.281586 
	C464.634033,476.103851 476.209747,484.342102 483.905365,497.027252 
	C486.671814,501.587341 489.524261,503.680634 495.158691,502.234711 
	C500.857880,500.772156 506.739136,502.471771 512.461060,503.387268 
	C515.500488,503.873596 517.377258,503.276917 519.192688,500.682495 
	C527.393860,488.962769 537.479797,479.617798 550.199890,472.442413 
	C570.216309,461.151123 591.456543,459.841980 613.456726,461.330658 
	C623.593689,462.016632 633.609070,463.004669 643.242432,466.711334 
	C652.667786,470.338013 661.179016,475.417328 669.058167,481.610046 
	C672.276306,484.139465 673.722778,487.597809 671.037048,491.231323 
	C668.529053,494.624512 665.004089,495.029633 661.233643,492.997009 
	C650.374695,487.143005 639.067688,482.371338 627.077026,479.386017 
	C621.331604,477.955536 615.716980,476.497925 609.804199,479.909454 
	C605.024597,482.667206 599.341919,480.748077 594.075806,480.867737 
	C577.052734,481.254547 561.792297,486.810364 551.438782,500.217377 
	C533.483398,523.468201 541.717834,555.373169 571.187378,564.815552 
	C580.804260,567.896790 590.109131,567.647888 599.375549,563.430786 
	C609.399109,558.869141 614.663757,550.558044 616.376648,540.353333 
	C617.595337,533.092285 617.732727,525.538696 613.748413,518.460571 
	C607.896973,508.065643 598.794189,504.251740 587.569824,504.590942 
	C580.778442,504.796173 574.569458,507.211975 569.181396,511.497620 
	C561.905273,517.285034 559.856323,527.169495 564.162537,535.775024 
	C567.800049,543.044189 577.673462,547.595642 585.826172,545.633972 
	C590.357788,544.543640 593.705994,542.052856 594.545044,537.125488 
	C595.348083,532.409546 594.038208,528.580505 589.757019,526.024292 
	C586.021301,523.793701 582.725586,523.366577 579.782288,527.485474 
	C577.983582,530.002625 575.146912,531.990662 572.102356,530.401978 
	C568.867065,528.713745 568.982361,525.309753 569.814087,522.009216 
	C571.372070,515.827209 576.217407,513.595764 581.644653,512.824707 
	C591.336670,511.447906 598.862488,515.382812 603.937500,523.676270 
	C608.580261,531.263306 607.876770,539.113037 603.503601,546.404053 
	C595.566650,559.636902 577.594543,562.134766 563.973877,552.893860 
	C543.201416,538.800781 545.896851,508.597931 568.787292,497.284363 
	C581.412720,491.044189 594.161804,489.514130 607.155090,495.961426 
	C618.012939,501.349030 625.264893,509.475098 627.747498,521.811462 
	C630.167175,533.835327 629.589600,545.351562 624.041870,556.340576 
	C616.036377,572.197998 597.263794,581.750000 579.571838,579.967773 
	C560.964050,578.093323 546.736877,569.260620 536.030212,554.233826 
	C535.028748,555.080322 535.633667,555.843018 535.995056,556.489624 
	C545.112427,572.801025 559.177551,583.158386 577.019958,587.139832 
	C588.369629,589.672363 600.279785,588.102112 611.490234,584.167297 
	C633.593506,576.409363 644.267822,559.782837 648.178467,537.481445 
	C650.053040,526.791077 650.232117,516.086426 650.732056,505.347565 
	C650.889587,501.963196 652.225037,498.942047 654.177002,496.289703 
	C661.354553,497.914734 664.900452,502.725494 665.457520,509.501221 
	C666.582642,523.185608 665.604919,536.628540 662.333923,549.941406 
	C658.520630,565.461426 650.319214,578.597168 637.934692,588.202026 
	C621.943481,600.604004 602.804077,605.158081 582.926758,602.773315 
	C550.182251,598.844849 524.623230,574.267761 518.593750,541.309875 
	C518.446167,540.503296 518.457642,539.658325 518.474060,538.832825 
	C518.535889,535.717712 517.924927,532.283447 522.257568,531.255188 
	C525.355042,530.520081 526.810852,531.460083 529.590942,536.039307 
	C528.520081,526.335449 529.867615,516.869019 531.721313,507.272461 
	C529.943420,510.219177 528.085693,513.121277 526.408264,516.124084 
	C524.399475,519.720215 521.733948,520.847229 517.675415,519.532227 
	C505.874207,515.708496 493.999176,514.359741 481.976898,518.893188 
	C479.154633,519.957458 476.448944,518.861206 475.443481,515.894531 
	C473.174194,509.198883 467.843384,504.805786 463.759796,499.459442 
	C458.799011,492.964569 451.885803,489.449524 444.726776,486.219391 
	C441.145569,484.603516 437.537811,485.332123 433.961792,486.307739 
	C416.393768,491.100800 403.422699,501.119049 396.940399,518.649963 
	C392.755493,529.967834 395.843109,540.073792 401.785522,549.759216 
	C413.954285,569.592834 438.769989,565.220886 451.763000,550.268311 
	C455.621704,545.827576 458.209747,540.578003 459.578308,534.876526 
	C461.569977,526.579285 456.143250,516.963440 447.526825,512.976074 
	C440.504578,509.726471 430.227051,512.672180 424.840363,519.884338 
	C419.925720,528.513306 420.358521,535.433167 425.801880,540.235291 
	C428.494812,542.610962 431.660431,543.666687 434.891205,541.552429 
	C437.750763,539.681152 439.972534,536.937805 439.232330,533.277954 
	C438.503326,529.673462 435.319672,529.340698 432.209869,529.085632 
	C426.067474,528.581665 424.228210,526.178955 424.982758,519.974609 
z"/>
<path fill="#000000" opacity="1.000000" stroke="none" 
	d="
M468.588898,597.278931 
	C470.863464,585.194092 477.431732,575.703430 484.011780,566.142517 
	C487.765930,560.687683 491.305725,555.088684 495.402222,549.872864 
	C496.016632,549.090637 496.540131,548.237549 497.125488,547.431641 
	C498.906189,544.980103 501.176239,543.843811 503.995270,545.501099 
	C506.922546,547.221985 506.078217,549.831787 504.844818,552.068237 
	C501.718231,557.737549 498.318604,563.255676 495.148163,568.901550 
	C489.697601,578.607666 484.220367,588.278259 482.603088,599.601440 
	C481.273651,608.909424 486.550812,616.681519 495.921204,618.566772 
	C498.032227,618.991394 500.154938,619.360046 502.260071,619.811462 
	C507.367188,620.906433 509.521545,624.102844 508.301697,629.022217 
	C507.378113,632.747009 504.024292,635.123657 502.694214,638.759521 
	C502.201111,640.107483 499.689850,640.558899 497.725342,640.167053 
	C482.013855,637.033081 470.161407,627.228882 467.459778,610.346924 
	C466.761017,605.980591 466.928345,601.780640 468.588898,597.278931 
z"/>
<path fill="#000000" opacity="1.000000" stroke="none" 
	d="
M539.626709,693.550415 
	C543.846619,692.958008 547.627136,692.394958 551.423706,691.978577 
	C557.467651,691.315552 560.332764,693.186157 560.925903,698.041199 
	C561.369507,701.671875 557.348083,706.321106 552.969971,706.902527 
	C530.147156,709.933289 507.318848,712.923950 484.481628,715.843994 
	C479.298035,716.506653 476.891327,714.602905 476.030518,709.674866 
	C475.371582,705.902527 477.836273,702.494873 482.514954,701.730286 
	C493.478638,699.938660 504.489777,698.433533 515.489807,696.869446 
	C523.384583,695.747070 531.292480,694.716919 539.626709,693.550415 
z"/>
</svg>